<?xml version="1.0" encoding="utf-8"?>
<!-- Generator: Adobe Illustrator 26.2.1, SVG Export Plug-In . SVG Version: 6.00 Build 0)  -->
<svg version="1.1" id="Laag_1" xmlns="http://www.w3.org/2000/svg" xmlns:xlink="http://www.w3.org/1999/xlink" x="0px" y="0px"
	 viewBox="0 0 145 143" style="enable-background:new 0 0 145 143;" xml:space="preserve">
<style type="text/css">
	.st0{fill:#0600FF;}
</style>
<path class="st0" d="M72.3,64.2L86.9,78l0.1-0.7c0-7.2-6.2-13.1-13.9-13.1L72.3,64.2z"/>
<path class="st0" d="M73.1,55.4c12.8,0,23.1,9.8,23.1,21.9c0,2.8-0.6,5.5-1.6,8l13.5,12.8c7-5.5,12.5-12.6,15.9-20.8
	c-8-19.2-27.8-32.8-50.9-32.8c-6.5,0-12.7,1.1-18.4,3.1l10,9.4C67.2,56,70.1,55.4,73.1,55.4z"/>
<path class="st0" d="M26.8,43.5l10.6,10l2.1,2c-7.6,5.6-13.7,13.1-17.3,21.8c8,19.2,27.8,32.8,50.9,32.8c7.2,0,14-1.3,20.3-3.7
	l2,1.9l13.5,12.8l5.9-5.6L32.7,38L26.8,43.5z M52.4,67.7l7.2,6.8c-0.2,0.9-0.3,1.9-0.3,2.9c0,7.2,6.2,13.1,13.9,13.1
	c1,0,2-0.1,3-0.3l7.2,6.8c-3.1,1.4-6.5,2.3-10.2,2.3c-12.8,0-23.1-9.8-23.1-21.9C49.9,73.8,50.9,70.6,52.4,67.7z"/>
</svg>
